<svg width="32" height="32" fill="none" xmlns="http://www.w3.org/2000/svg"><circle cx="16" cy="16" r="16" fill="#fff"/><path d="M23.712 12.422h-.898L20.953 7.12a2.267 2.267 0 0 0-.802-1.082 2.15 2.15 0 0 0-1.257-.413h-1.752c-.602 0-1.095.51-1.095 1.133s.493 1.133 1.095 1.133h1.752l1.599 4.53h-5.267l-.395-1.132h.099c.602 0 1.095-.51 1.095-1.133s-.493-1.133-1.095-1.133h-3.263c-.603 0-1.095.51-1.095 1.133s.492 1.133 1.095 1.133h.821l1.993 5.664h-.734c-.482-2.526-2.53-4.395-5.092-4.52-3.066-.158-5.749 2.481-5.749 5.653 0 3.172 2.41 5.664 5.476 5.664 2.693 0 4.873-1.915 5.365-4.531h4.6c.481 2.526 2.53 4.395 5.091 4.52 3.067.147 5.75-2.481 5.75-5.664 0-3.16-2.41-5.653-5.476-5.653ZM9.477 19.219h1.993c-.46 1.393-1.753 2.356-3.308 2.254-1.631-.102-2.989-1.53-3.066-3.229-.076-1.982 1.391-3.556 3.286-3.556 1.456 0 2.65.94 3.088 2.265H9.477c-.603 0-1.095.51-1.095 1.133s.492 1.133 1.095 1.133Zm8.87-2.266h-1.534l-.799-2.265h3.318a5.452 5.452 0 0 0-.986 2.265Zm5.234 4.531c-1.686-.068-3.11-1.552-3.154-3.307-.022-1.088.427-2.04 1.15-2.674l.679 1.926c.208.589.832.895 1.401.68.57-.216.866-.861.657-1.45l-.69-1.96.012-.011c.439-.016.876.06 1.286.225.41.164.782.413 1.097.73.314.318.563.698.73 1.118.169.42.253.87.248 1.325 0 1.948-1.51 3.466-3.416 3.398Z" fill="url(#a)"/><defs><linearGradient id="a" x1="16.047" y1="5.625" x2="16.047" y2="23.75" gradientUnits="userSpaceOnUse"><stop stop-color="#FFB60D"/><stop offset="1" stop-color="#F2A50C"/><stop offset="1" stop-color="#E59317"/></linearGradient></defs></svg>