<svg width="140" height="38" fill="none" xmlns="http://www.w3.org/2000/svg"><path d="M11.394 23.361v5.226c0 2.613-1.12 3.555-2.9 3.555-1.78 0-2.899-.942-2.899-3.555V8.832c0-2.613 1.12-3.606 2.9-3.606 1.78 0 2.899.993 2.899 3.606v3.92h5.29V9.198C16.684 3.344 13.835 0 8.342 0 2.848 0 0 3.344 0 9.198V28.22c0 5.854 2.848 9.199 8.342 9.199 5.493 0 8.342-3.345 8.342-9.199v-4.86h-5.29ZM32.503.418 38.2 37.002h-5.646l-.967-6.638h-6.866l-.967 6.638h-5.137L24.314.418h8.189Zm-4.425 6.48L25.433 25.4h5.391L28.18 6.897h-.101l-.001.001ZM58.19 37.002h-5.697c-.305-.941-.509-1.517-.509-4.495v-5.749c0-3.397-1.119-4.651-3.662-4.651h-1.933v14.895h-5.595V.418h8.444c5.798 0 8.29 2.77 8.29 8.415v2.874c0 3.762-1.17 6.167-3.662 7.369 2.798 1.306 3.713 4.023 3.713 7.84v5.643c0 1.778.051 3.084.61 4.443h.001ZM49.085 5.644h-2.696V16.88h2.187c2.086 0 3.357-.94 3.357-3.867V9.407c0-2.612-.864-3.762-2.848-3.762v-.001ZM75.242.418l5.697 36.584h-5.646l-.966-6.638H67.46l-.966 6.638h-5.138L67.053.418h8.19-.001Zm-4.425 6.48L68.172 25.4h5.392L70.919 6.897h-.102v.001ZM86.115.418h-5.646l5.493 36.584h8.342L99.797.418H94.66l-4.222 29.84h-.102L86.115.419Zm27.098 0 5.697 36.584h-5.646l-.966-6.638h-6.867l-.967 6.638h-5.137L105.024.418h8.189Zm-4.425 6.48L106.143 25.4h5.392L108.89 6.897h-.102v.001Zm25.464 30.104H140V.418h-4.985v21.897h-.102L129.267.418h-7.019v36.584h5.036V10.504h.101l6.867 26.498Z" fill="#9C9C9C"/></svg>