<svg width="151" height="39" fill="none" xmlns="http://www.w3.org/2000/svg"><path fill-rule="evenodd" clip-rule="evenodd" d="M22.202 16.426h2.717c2.808 0 4.325 3.46 2.496 5.7l-2.66 3.258c.288 1.931 1.259 3.678 2.719 4.89a7.166 7.166 0 0 0 5.161 1.655c1.857-.15 3.592-1.03 4.86-2.463 1.267-1.433 1.972-3.316 1.975-5.272 0-.34.063-.677.187-.991a2.6 2.6 0 0 1 .535-.84c.229-.241.5-.432.8-.562.3-.13.62-.196.944-.196.654 0 1.28.273 1.743.758.463.486.723 1.144.724 1.831 0 2.717-.815 5.365-2.328 7.569a12.543 12.543 0 0 1-4.336 3.922 11.873 11.873 0 0 1-5.553 1.449 11.857 11.857 0 0 1-5.578-1.338 12.51 12.51 0 0 1-4.406-3.836 12.51 12.51 0 0 1-4.406 3.836 11.857 11.857 0 0 1-5.578 1.338 11.873 11.873 0 0 1-5.553-1.449 12.543 12.543 0 0 1-4.336-3.922A13.384 13.384 0 0 1 0 24.194c0-.34.063-.677.187-.992a2.6 2.6 0 0 1 .535-.84c.23-.24.501-.431.8-.561.3-.13.621-.197.945-.196.654 0 1.28.273 1.743.758.463.486.723 1.144.724 1.831-.003 1.96.7 3.847 1.966 5.284a7.349 7.349 0 0 0 3.504 2.226 7.06 7.06 0 0 0 4.094-.071 7.381 7.381 0 0 0 3.432-2.346 7.961 7.961 0 0 0 1.72-3.904l-2.662-3.258c-1.828-2.24-.312-5.698 2.5-5.698h2.714v-.001Z" fill="#9C9C9C"/><path d="M33.713 10.117a4.82 4.82 0 0 0 1.887-.384 4.924 4.924 0 0 0 1.6-1.096 5.07 5.07 0 0 0 1.07-1.642 5.176 5.176 0 0 0 0-3.873A5.07 5.07 0 0 0 37.2 1.48 4.924 4.924 0 0 0 35.6.384a4.82 4.82 0 0 0-3.774 0 4.923 4.923 0 0 0-1.6 1.096 5.072 5.072 0 0 0-1.07 1.642 5.175 5.175 0 0 0 0 3.873 5.072 5.072 0 0 0 1.07 1.642c.458.47 1.001.842 1.6 1.096a4.82 4.82 0 0 0 1.887.384Zm-23.023 0a4.82 4.82 0 0 0 1.887-.384 4.923 4.923 0 0 0 1.6-1.096 5.07 5.07 0 0 0 1.07-1.642 5.177 5.177 0 0 0 0-3.873 5.07 5.07 0 0 0-1.07-1.642 4.923 4.923 0 0 0-1.6-1.096 4.82 4.82 0 0 0-3.775 0 4.923 4.923 0 0 0-1.6 1.096 5.071 5.071 0 0 0-1.07 1.642 5.177 5.177 0 0 0 0 3.873 5.071 5.071 0 0 0 1.07 1.642c.458.47 1.002.842 1.6 1.096a4.82 4.82 0 0 0 1.888.384Zm67.933-8.881c.76 0 1.384.223 1.872.668.488.446.732 1.03.732 1.755v24.98c0 .753-.23 1.351-.692 1.797-.46.445-1.071.668-1.83.668-.76 0-1.37-.223-1.832-.668-.461-.446-.692-1.044-.692-1.796v-1.045a6.427 6.427 0 0 1-2.605 2.673c-1.112.64-2.387.961-3.825.961-1.71 0-3.242-.445-4.598-1.337-1.33-.89-2.374-2.144-3.134-3.76-.733-1.642-1.1-3.522-1.1-5.638 0-2.117.367-3.968 1.1-5.556.76-1.588 1.804-2.813 3.134-3.676 1.329-.864 2.862-1.296 4.598-1.296 1.438 0 2.713.307 3.826.92a6.292 6.292 0 0 1 2.563 2.59v-9.9c0-.697.217-1.254.65-1.672.463-.445 1.073-.668 1.833-.668Zm-7.53 25.941c1.629 0 2.877-.57 3.745-1.713.895-1.141 1.343-2.771 1.343-4.887 0-2.117-.448-3.732-1.343-4.845-.868-1.143-2.102-1.714-3.703-1.714-1.628 0-2.89.557-3.785 1.672-.895 1.114-1.343 2.715-1.343 4.804 0 2.116.448 3.759 1.343 4.93.895 1.17 2.143 1.753 3.744 1.753Zm24.442 4.052c-2.034 0-3.825-.431-5.371-1.294-1.52-.864-2.7-2.103-3.541-3.718-.841-1.616-1.262-3.496-1.262-5.64 0-2.144.42-4.01 1.262-5.597.84-1.616 2.02-2.855 3.54-3.718 1.547-.864 3.338-1.296 5.372-1.296 2.035 0 3.812.431 5.331 1.296a8.57 8.57 0 0 1 3.541 3.718c.841 1.587 1.262 3.453 1.262 5.597 0 2.145-.421 4.024-1.262 5.64a8.57 8.57 0 0 1-3.541 3.718c-1.52.862-3.296 1.294-5.33 1.294h-.001Zm-.04-4.052c1.655 0 2.916-.557 3.784-1.67.869-1.115 1.303-2.758 1.303-4.93 0-2.144-.434-3.773-1.303-4.887-.868-1.143-2.116-1.713-3.744-1.713-1.627 0-2.89.57-3.784 1.713-.868 1.114-1.303 2.743-1.303 4.887 0 2.172.434 3.815 1.303 4.93.868 1.113 2.116 1.67 3.744 1.67Zm31.221-17.127c.76 0 1.37.223 1.831.668.462.446.692 1.045.692 1.796v16.5c0 3.204-.868 5.626-2.604 7.27-1.737 1.643-4.3 2.464-7.692 2.464-2.957 0-5.426-.57-7.406-1.712-1.004-.613-1.506-1.351-1.506-2.214 0-.613.136-1.1.407-1.462a1.412 1.412 0 0 1 1.139-.544c.245 0 .543.056.896.168.352.139.719.293 1.098.46.85.37 1.719.691 2.605.96.787.223 1.682.334 2.686.334 3.554 0 5.331-1.782 5.331-5.348v-2.672a6.432 6.432 0 0 1-2.604 2.674c-1.14.612-2.442.918-3.907.918-1.737 0-3.283-.418-4.64-1.252-1.329-.864-2.373-2.061-3.133-3.593-.76-1.532-1.14-3.3-1.14-5.306 0-2.005.367-3.773 1.099-5.305.76-1.56 1.818-2.757 3.174-3.592 1.357-.864 2.903-1.296 4.64-1.296 1.465 0 2.767.32 3.907.961a6.172 6.172 0 0 1 2.604 2.632v-1.086c0-.724.231-1.309.692-1.755.461-.445 1.072-.668 1.831-.668Zm-7.691 16.209c1.628 0 2.889-.544 3.784-1.63.923-1.086 1.384-2.576 1.384-4.47 0-1.921-.461-3.425-1.384-4.511-.895-1.086-2.156-1.63-3.784-1.63-1.601 0-2.863.544-3.785 1.63-.922 1.086-1.384 2.59-1.384 4.511 0 1.894.462 3.384 1.384 4.47.922 1.087 2.184 1.63 3.785 1.63Zm22.686 4.97c-2.957 0-5.344-.598-7.162-1.796-.868-.53-1.302-1.282-1.302-2.256 0-.557.149-1.003.447-1.336.299-.363.665-.544 1.099-.544.461 0 1.099.224 1.913.67.868.417 1.655.737 2.36.96.733.223 1.655.334 2.767.334 1.14 0 2.022-.195 2.646-.586.651-.39.976-.932.976-1.629 0-.472-.135-.848-.407-1.127-.244-.279-.705-.53-1.383-.752-.652-.25-1.655-.529-3.012-.836-2.414-.5-4.151-1.21-5.209-2.13-1.031-.918-1.546-2.186-1.546-3.8a5.49 5.49 0 0 1 1.058-3.302c.705-1.002 1.668-1.768 2.889-2.297 1.248-.557 2.659-.836 4.232-.836 1.14 0 2.239.154 3.297.46a9.509 9.509 0 0 1 2.849 1.252c.868.558 1.302 1.296 1.302 2.216 0 .556-.149 1.03-.448 1.42-.298.362-.665.543-1.099.543-.298 0-.597-.056-.895-.167a25.57 25.57 0 0 1-1.058-.585c-.787-.418-1.465-.724-2.035-.919-.57-.223-1.275-.335-2.116-.335-1.004 0-1.804.21-2.401.627-.57.417-.855.99-.855 1.713 0 .696.299 1.226.896 1.587.597.362 1.75.725 3.459 1.087 1.818.39 3.242.834 4.273 1.336 1.031.501 1.763 1.128 2.197 1.88.462.752.692 1.713.692 2.882 0 1.894-.773 3.412-2.319 4.554-1.52 1.141-3.555 1.712-6.105 1.712Z" fill="#9C9C9C"/></svg>