<svg width="139" height="51" fill="none" xmlns="http://www.w3.org/2000/svg"><path d="M24.912 11 20.31 39.864h-6.612l1.68-10.423H8.256L6.61 39.864H0L4.639 11h6.575L9.242 23.187h7.122L18.338 11h6.574Zm13.561 28.864.22-6.294h-6.1l-1.79 6.294h-6.977L33.214 11h12.053l.147 28.864h-6.941Zm-1.497-21.849-2.885 10.183h4.785l.401-10.182h-2.301ZM73.783 11 69.18 39.864h-6.612L57.967 24.07l-2.484 15.795H48.87L53.509 11h6.794l4.53 14.753L67.206 11h6.577Zm15.425 0c3.19 0 5.467.882 6.83 2.646.999 1.336 1.497 3.006 1.497 5.01 0 .723-.06 1.484-.181 2.286l-1.425 8.94c-.487 3.02-1.681 5.439-3.58 7.256-1.9 1.818-4.359 2.726-7.38 2.726H74.34L78.98 11h10.228Zm-2.302 6.254h-2.374L81.939 33.61h3.47c1.144 0 2.033-.335 2.666-1.002.658-.695 1.108-1.817 1.35-3.367l1.061-6.575c.092-.53.141-1.066.146-1.604 0-2.54-1.241-3.807-3.726-3.807Zm30.206 22.61H98.775L103.416 11h18.337l-1.023 6.254h-11.762l-.84 5.412h9.716l-1.022 6.253h-9.717l-.73 4.691h11.762l-1.025 6.254Zm20.865 0H121.32L125.96 11h6.575l-3.616 22.61H139l-1.023 6.254ZM73.471 45h63.543l-1.985 6H71.486l1.985-6ZM6.95 0h69.5l-1.986 6h-69.5L6.95 0Z" fill="#9C9C9C"/></svg>