<svg width="148" height="37" fill="none" xmlns="http://www.w3.org/2000/svg"><path d="M48.624 36.52V0h-8.976L20.88 28.18l-3.168-4.096c5.664-.889 8.832-6.021 8.832-11.5 0-5.23-2.784-9.623-6.528-11.3C18.144.443 15.36 0 11.664 0H0v36.52h8.688V24.725h.096l8.208 11.795h9.168l3.12-5.28h10.272v5.28h9.072ZM8.688 18.359V8.192h3.456c3.408 0 5.712 1.777 5.712 4.935 0 3.356-2.16 5.232-5.76 5.232H8.688Zm30.864 5.478H33.6l5.856-10.117h.096v10.117ZM85.03 36.52V0h-8.688l.384 23.096L62.902 0h-7.824v36.52h8.688l-.24-22.307L77.158 36.52h7.872Zm26.198 0v-8.192h-11.04V22.06h10.704v-8.192h-10.704V8.192h11.04V0H91.5v36.52h19.728Zm36.062 0-12.528-18.31L146.522 0h-9.504l-10.032 16.434h-.096V0h-9.072v36.52h9.072V20.728h.096l9.696 15.792h10.608Z" fill="#9C9C9C"/></svg>